<mxfile host="app.diagrams.net" modified="2023-09-08T07:07:21.176Z" agent="Mozilla/5.0 (Windows NT 10.0; Win64; x64) AppleWebKit/537.36 (KHTML, like Gecko) Chrome/116.0.0.0 Safari/537.36" etag="IspBOpSowo3g4MuGRjE8" version="21.7.2" type="github">
  <diagram name="Page-1" id="W3rRGqENTHbZlLEFgb1b">
    <mxGraphModel dx="1034" dy="471" grid="1" gridSize="10" guides="1" tooltips="1" connect="1" arrows="1" fold="1" page="1" pageScale="1" pageWidth="850" pageHeight="1100" math="0" shadow="0">
      <root>
        <mxCell id="0" />
        <mxCell id="1" parent="0" />
        <mxCell id="ScidtNdO1ESNn-v9GQUH-6" style="edgeStyle=orthogonalEdgeStyle;rounded=0;orthogonalLoop=1;jettySize=auto;html=1;exitX=0.5;exitY=1;exitDx=0;exitDy=0;entryX=0.5;entryY=0;entryDx=0;entryDy=0;" edge="1" parent="1" source="ScidtNdO1ESNn-v9GQUH-1" target="ScidtNdO1ESNn-v9GQUH-5">
          <mxGeometry relative="1" as="geometry" />
        </mxCell>
        <mxCell id="ScidtNdO1ESNn-v9GQUH-1" value="Customer Requested for Exchange" style="rounded=1;whiteSpace=wrap;html=1;" vertex="1" parent="1">
          <mxGeometry x="320" y="120" width="120" height="60" as="geometry" />
        </mxCell>
        <mxCell id="ScidtNdO1ESNn-v9GQUH-4" style="edgeStyle=orthogonalEdgeStyle;rounded=0;orthogonalLoop=1;jettySize=auto;html=1;exitX=0.5;exitY=1;exitDx=0;exitDy=0;exitPerimeter=0;entryX=0.5;entryY=0;entryDx=0;entryDy=0;" edge="1" parent="1" source="ScidtNdO1ESNn-v9GQUH-2" target="ScidtNdO1ESNn-v9GQUH-1">
          <mxGeometry relative="1" as="geometry" />
        </mxCell>
        <mxCell id="ScidtNdO1ESNn-v9GQUH-2" value="" style="strokeWidth=2;html=1;shape=mxgraph.flowchart.start_2;whiteSpace=wrap;strokeColor=#006600;" vertex="1" parent="1">
          <mxGeometry x="360" y="40" width="40" height="40" as="geometry" />
        </mxCell>
        <mxCell id="ScidtNdO1ESNn-v9GQUH-12" style="edgeStyle=orthogonalEdgeStyle;rounded=0;orthogonalLoop=1;jettySize=auto;html=1;exitX=1;exitY=0.5;exitDx=0;exitDy=0;entryX=0;entryY=0.5;entryDx=0;entryDy=0;" edge="1" parent="1" source="ScidtNdO1ESNn-v9GQUH-5" target="ScidtNdO1ESNn-v9GQUH-7">
          <mxGeometry relative="1" as="geometry" />
        </mxCell>
        <mxCell id="ScidtNdO1ESNn-v9GQUH-13" value="NO" style="edgeLabel;html=1;align=center;verticalAlign=middle;resizable=0;points=[];" vertex="1" connectable="0" parent="ScidtNdO1ESNn-v9GQUH-12">
          <mxGeometry x="-0.0333" relative="1" as="geometry">
            <mxPoint as="offset" />
          </mxGeometry>
        </mxCell>
        <mxCell id="ScidtNdO1ESNn-v9GQUH-14" style="edgeStyle=orthogonalEdgeStyle;rounded=0;orthogonalLoop=1;jettySize=auto;html=1;exitX=0.5;exitY=1;exitDx=0;exitDy=0;" edge="1" parent="1" source="ScidtNdO1ESNn-v9GQUH-5">
          <mxGeometry relative="1" as="geometry">
            <mxPoint x="380" y="370" as="targetPoint" />
          </mxGeometry>
        </mxCell>
        <mxCell id="ScidtNdO1ESNn-v9GQUH-5" value="Requested Size Available?" style="rhombus;whiteSpace=wrap;html=1;" vertex="1" parent="1">
          <mxGeometry x="320" y="200" width="120" height="120" as="geometry" />
        </mxCell>
        <mxCell id="ScidtNdO1ESNn-v9GQUH-7" value="Initiate Refund" style="whiteSpace=wrap;html=1;" vertex="1" parent="1">
          <mxGeometry x="520" y="230" width="120" height="60" as="geometry" />
        </mxCell>
      </root>
    </mxGraphModel>
  </diagram>
</mxfile>
